<?xml version="1.0" encoding="utf-8"?>
<!-- Generator: Adobe Illustrator 26.1.0, SVG Export Plug-In . SVG Version: 6.00 Build 0)  -->
<svg version="1.1" id="Calque_1" xmlns="http://www.w3.org/2000/svg" xmlns:xlink="http://www.w3.org/1999/xlink" x="0px" y="0px"
	 viewBox="0 0 1268 124" style="enable-background:new 0 0 1268 124;" xml:space="preserve">
<g>
	<path d="M17.5,69c0-15.9,9.6-24.9,22.6-24.9c13.1,0,22.4,8.8,22.4,24.9c0,16.1-9.6,25.2-22.5,25.2C26.8,94.2,17.5,85.3,17.5,69z
		 M54.1,69c0-12.5-4.7-20.9-14.2-20.9c-9.4,0-14.2,8.4-14.2,20.8c0,12.8,4.7,21.3,14.3,21.3C49.4,90.2,54.1,81.7,54.1,69z"/>
	<path d="M75.3,88.2h10.5l0.5-0.5V50.1l-0.5-0.5H75.3v-4.5h18.4v42.6l0.5,0.5h11.5v4.5H75.3V88.2z"/>
	<path d="M148.5,80v12.7h-34.7v-3.3l8-7.7c7.5-7.2,16.4-15,16.4-24.1c0-5.2-3.1-9.5-8.8-9.5c-4,0-6.9,2.6-9.7,7.1l-4,6.6h-0.3V48.3
		c3-1.8,8.5-4.2,14.5-4.2c8.5,0,15.7,5.2,15.7,13.4c0,10.4-9.3,17.2-19.3,25.4l-4.4,3.6h21.6l0.5-0.5V80H148.5z"/>
	<path d="M192,86.1c0,12-8.4,19-19.6,19c-5,0-9.9-1.6-14.3-4.2V87.4h0.3l3.9,6.4c2.7,4.6,5.8,7.4,10.6,7.4c7.2,0,11.7-5.3,11.7-13.9
		c0-7.5-4.4-12.3-14.1-12.3h-5.1v-4.5h3.3c8.3,0,13.5-5.1,13.5-12.1c0-6.6-3.7-10.4-8.7-10.4s-7.7,3.4-11.3,9.4l-2.6,4.4h-0.3V48.3
		c3.4-2,8.2-4.2,14.4-4.2c9.7,0,15.9,5.9,15.9,13.6c0,6.6-3.9,11.4-9.7,13.8C187,73.1,192,78.5,192,86.1z"/>
	<path d="M231.9,88.7v9.9l0.5,0.5h6.9v4.5h-22.9v-4.5h8.4l0.5-0.5v-9.9h-26.6v-2.4L228,45.2h4v38.1h12.5l-1.5,5.4H231.9z
		 M225.4,83.3V55.9l-19.6,27.4H225.4z"/>
	<path d="M289.1,84.6c0,12.4-8.3,20.5-19.9,20.5c-5.4,0-10.7-1.3-15.8-3.6v-14h0.5l3.7,5.8c3.6,5.7,6.8,7.8,12.5,7.8
		c6.2,0,11.4-4.9,11.4-15.1c0-8.4-4.7-14.4-13.2-14.4c-4.7,0-8.8,1.5-12,2.9l-1.7-1.1l2.1-28.4h29.2v14.8h-0.3l-6-7.8h-18.7
		l-1.5,17.8c3.6-2.1,7.3-3.3,11.8-3.3C282.9,66.7,289.1,74.7,289.1,84.6z"/>
	<path d="M335.1,73.5c0,12.2-7.8,20.7-18.8,20.7c-11.5,0-19.2-9.2-19.2-23.7c0-19.1,13.4-35,34.2-42.2l1.2,3.3
		c-11.3,4.3-22.6,13.5-26.4,28.1c3.7-2.3,7.2-3.8,12.2-3.8C328.7,56,335.1,63.9,335.1,73.5z M327.4,75.9c0-8.4-4-14.7-13-14.7
		c-3.3,0-6.4,1-9.2,2.1c-0.3,2.2-0.5,4.5-0.5,6.8c0,10.6,3.3,20.1,11.8,20.1C322.3,90.2,327.4,84.6,327.4,75.9z"/>
	<path d="M383,45.2v0.3l-23.7,59.1l-7.2-3.5L376,51.8h-24.9l-6,10.2h-0.3V45.2H383z"/>
	<path d="M429.4,75.1c0,11.1-8,19.1-20.1,19.1c-12,0-19.8-6.6-19.8-17.1c0-9.2,5.8-16,14.5-18.5c-5.2-3.3-10.5-8.6-10.5-15.7
		c0-9.4,7.6-16.1,16.8-16.1c10.7,0,16.4,6.2,16.4,13.8c0,7-4.5,11.9-11.9,15.6l2,1.3C423.9,62.1,429.4,67.7,429.4,75.1z M421.7,77.8
		c0-5.8-3.2-10.2-10-14.5l-5.2-3.3c-6.4,3.5-9.4,8.7-9.4,15.1c0,10.1,5.6,15.1,12.6,15.1C416.6,90.2,421.7,85,421.7,77.8z
		 M409.4,52.6l3.1,2c4.4-4.1,7-8.1,7-13.9c0-5.6-3.4-9.9-9.5-9.9c-6,0-9.6,4.1-9.6,9.3C400.4,45.5,403.4,48.7,409.4,52.6z"/>
	<path d="M479.6,67.5c0,18.3-14.1,32.9-35.2,37.5l-1.2-3.2c14.6-5.5,22.3-12.7,25.7-22c-3.1,1.7-7.3,3.4-12.9,3.4
		c-9.9,0-16.5-7.3-16.5-18c0-11.1,7.8-21.1,19.9-21.1C474.5,44.2,479.6,56.2,479.6,67.5z M470,76.3c0.6-2.9,0.9-5.9,0.9-9.2
		c0-10-3.5-18.9-11.8-18.9c-6.9,0-11.7,6.5-11.7,15c0,8.8,3.7,14.9,12.6,14.9C463.2,77.9,467,77.3,470,76.3z"/>
	<path d="M517.8,21.5h5.4l-31.7,90.5h-5.4L517.8,21.5z"/>
	<path d="M528.7,60.4c0-16.4,6.6-33.6,22.8-33.6c15.3,0,22.8,12.9,22.8,33.8c0,16.2-6.5,33.6-22.8,33.6
		C536.2,94.2,528.7,81.1,528.7,60.4z M565.9,60.6c0-14-3.9-29.8-14.5-29.8c-11.6,0-14.5,14.3-14.5,29.6c0,13.9,3.9,29.8,14.5,29.8
		C563,90.1,565.9,75.8,565.9,60.6z"/>
	<path d="M587.3,88.2h12.9l0.5-0.5V33.2l-0.5-0.5h-12.9v-4.4h20.8v59.4l0.5,0.5h12.9v4.5h-34.2V88.2z"/>
	<path d="M674.7,79.3v13.4h-40.3v-2.4l12.9-14.6c8.7-9.9,16.2-18.5,16.2-30.9c0-7.5-3.9-13.8-10.8-13.8c-5.1,0-7.8,2.1-11.5,7.7
		l-4.6,6.9h-0.6V32c4.4-2.8,10.5-5.2,17.1-5.2c10.8,0,18.3,7.1,18.3,18c0,10.9-7,20.1-15,27.9l-13.1,13h26.3l0.5-0.5v-5.9H674.7z"/>
	<path d="M725.8,74.5c0,13.2-10.2,19.7-21.2,19.7c-5.8,0-10.9-1.2-16.1-3.6v-14h0.5l4.2,6.7c3.1,5,6.8,6.7,12.3,6.7
		c7.2,0,12.3-5.6,12.3-15c0-6.9-3.6-13.6-14.9-13.6h-7v-4.5h4.2c9.5,0,15.4-5.7,15.4-14.4c0-7.1-3.8-11.7-10.2-11.7
		c-4.6,0-7.9,3-10.5,6.8l-5.2,7.7H689V31.9c3.9-2,8.6-5.1,17.2-5.1c11.1,0,17,5.9,17,14.7c0,7.4-4.8,13.7-11.9,16.4
		C719.8,59.7,725.8,66.1,725.8,74.5z"/>
	<path d="M782.1,69.2v1l-2,5h-11.3v12.6l0.5,0.5h8.4v4.5H752v-4.5h9.4l0.5-0.5V75.2h-28.3v-2.4l31.7-45h3.6v41.4H782.1z M761.9,69.2
		V40l-20.7,29.2H761.9z"/>
	<path d="M828.8,72.2c0,13.8-9.3,22-22.3,22c-5.3,0-10.7-1.4-15.8-3.6v-14h0.5l3.7,5.8c3.7,5.8,7.2,7.8,12.6,7.8
		c7.5,0,13.3-5.2,13.3-16.1c0-9.5-5.2-16.1-14.6-16.1c-4.8,0-9.1,1.5-12.4,2.9l-1.7-1.1l2.2-31.6h30.2v14.8h-0.3l-6-7.8h-19.6
		l-1.7,20.8c3.7-2.1,7.6-3.3,12.2-3.3C822,52.8,828.8,61.8,828.8,72.2z"/>
	<path d="M881.9,72.6c0,12.8-8.6,21.6-20.1,21.6c-13.2,0-20.8-9.4-20.8-24.8c0-22.3,17.3-36.9,35.8-42.5l1.2,3.3
		c-11.8,4.5-24,14.1-27.7,29.6c4.7-2.9,9.1-4.8,15.4-4.8C875.5,55.1,881.9,63,881.9,72.6z M874.2,75.2c0-8.4-3.7-14.7-12.4-14.7
		c-4.5,0-8.9,1-12.3,2.4c-0.4,2.3-0.6,4.8-0.6,7.2c0,10.2,3.6,20.2,13.1,20.2C868.6,90.3,874.2,84.4,874.2,75.2z"/>
	<path d="M934.6,28.3c-7.7,20-17.1,43.9-26.1,65.4l-8.4-4.2c10.2-18.3,20.1-37.5,28-54.3h-27.3l-6,7.8h-0.3V28.3H934.6z"/>
	<path d="M985,76.3c0,9.9-8.5,17.9-20.7,17.9c-11.3,0-19.9-6.3-19.9-17.5c0-8.7,6.7-14.9,14.7-16.9l-1-0.6c-5.7-3.6-11-8.3-11-16.2
		c0-9.4,8-16,17.6-16c10,0,17.6,5.7,17.6,15.7c0,6.1-4.6,11.7-11.7,15.1l3.7,2.3C979.6,63.3,985,67.9,985,76.3z M977.3,77.7
		c0-4.2-2.5-8.3-8.6-12.1l-7.3-4.5c-5.3,3-9.3,7.7-9.3,14.6c0,9,5.3,14.6,13,14.6C972.5,90.3,977.3,85.4,977.3,77.7z M962.6,52.6
		l5.5,3.5c4.4-3.8,6.9-8.1,6.9-13.7c0-6.4-4-11.6-10.8-11.6c-6.1,0-10.3,4.2-10.3,9.5C954,47,958.3,49.9,962.6,52.6z"/>
	<path d="M1036.2,52.1c0,20.2-14,37.2-35.6,42.1l-1.2-3.2c17.7-6.8,25.5-16.2,27.5-29.6c-3.2,2.1-8,4.6-14.9,4.6
		c-10.2,0-17-7.3-17-18c0-11.1,8.2-21.1,20.7-21.1C1030.5,26.8,1036.2,38.3,1036.2,52.1z M1027.4,58.4c0.1-1.8,0.2-3.7,0.2-5.6
		c0-13-3.6-22-12.3-22c-7.1,0-12.3,6.3-12.3,15c0,8.8,3.8,14.9,13.1,14.9C1019.7,60.6,1024.2,59.6,1027.4,58.4z"/>
</g>
</svg>
